# xmcd
#
# Track frame offsets:
#	150
#	12715
#	27795
#	40170
#	52627
#	67680
#	79982
#	92135
#	106965
#	123120
#	136145
#	149592
#	161590
#	173830
#	187015
#	200810
#	213102
#	228402
#	244237
#	257807
#	270707
#	282100
#	293590
#	301905
#	307977
#	317582
#
# Disc length: 4366 seconds
#
# Revision: 1
# Processed by: cddbd v1.4PL0 Copyright (c) Steve Scherf et al.
# Submitted via: audiograbber 1.80
#
DISCID=6a110c1a
DTITLE=Johnny "Guitar" Watson - Gonna Hit That Highway [CD1]
DYEAR=1900
DGENRE=
TTITLE0=Hot Little Mama
TTITLE1=Hot Little Mama 2 (take 1)
TTITLE2=I Love To Love You
TTITLE3=I Love To Love You 2 (take 1)
TTITLE4=I Love To Love You 4 (take 2)
TTITLE5=Too Tired
TTITLE6=Too Tired (alt. take)
TTITLE7=Don't Touch me
TTITLE8=Don't Touch me (I'm Gonna Hit That Highway (take 1)
TTITLE9=Those Lonely Lobely Nights (take 4)
TTITLE10=Someone Cares For Me
TTITLE11=Oh Baby
TTITLE12=Oh Baby (take 2)
TTITLE13=Give A Little (take 1)
TTITLE14=Give A Little (take 3)
TTITLE15=Ruben
TTITLE16=Three Hours Past Midnight
TTITLE17=Three Hours Past Midnight (take 2)
TTITLE18=Love Me Baby (take 7)
TTITLE19=She Moves Me (take 5)
TTITLE20=Lonely Girl
TTITLE21=Ain't Gonna Hush
TTITLE22=My Baby And Me
TTITLE23=I'll Be Bleu
TTITLE24=Love Bandit
TTITLE25=In The Middle Of The Night
EXTD=
EXTT0=
EXTT1=
EXTT2=
EXTT3=
EXTT4=
EXTT5=
EXTT6=
EXTT7=
EXTT8=
EXTT9=
EXTT10=
EXTT11=
EXTT12=
EXTT13=
EXTT14=
EXTT15=
EXTT16=
EXTT17=
EXTT18=
EXTT19=
EXTT20=
EXTT21=
EXTT22=
EXTT23=
EXTT24=
EXTT25=
PLAYORDER=
